<?xml version="1.0" encoding="UTF-8"?>
<svg id="Layer_2" data-name="Layer 2" xmlns="http://www.w3.org/2000/svg" viewBox="0 0 95.6500015259 16">
  <defs>
    <style>
      .cls-1 {
        fill: #fff;
      }
    </style>
  </defs>
  <g id="Layer_1-2" data-name="Layer 1">
    <g>
      <polygon class="cls-1" points="8.2399997711 12.1499996185 11.1300001144 8 8.2299995422 3.8299999237 5.3400001526 8 8.2399997711 12.1499996185"/>
      <polygon class="cls-1" points="3.5599999428 7.9400000572 7.3200001717 2.5299999714 5.5599999428 0 0 8 5.5700001717 16 7.3800001144 13.3999996185 3.5599999428 7.9400000572"/>
      <path class="cls-1" d="M29.7999992371,11.8699998856c-.095495224-.1953754425-.133638382-.4138231277-.1100006104-.6300001144h0c-.3540706635.5564870834-.981508255.8778581619-1.6399993896.8400001526-1.4634037018-.0210428238-2.6326675415-1.2244243622-2.611623764-2.687828064.0002975464-.0207290649.0008392334-.0414552689.0016231537-.062171936-.0612316132-1.4512176514,1.065574646-2.6773004532,2.5167922974-2.7385320663.0143985748-.0006079674.0288028717-.0010967255.0432090759-.0014677048.604719162-.016354084,1.1873722076.2276315689,1.6000003815.6700000763v-.4600000381h1.8299999237v3.6500005722h0v.1700000763c-.057975769.4391794205.0567436218.8837194443.3199996948,1.2399997711l-1.9500007629.0099992752ZM28.6499996185,7.9400000572c-.5699996948,0-1,.4500002861-1,1.3799996376s.3999996185,1.3800001144,1,1.3800001144,1-.4499998093,1-1.3800001144-.4099998474-1.3800001144-1-1.3800001144"/>
      <path class="cls-1" d="M18.7099990845,8.6499996185c.7299995422,0,1,.1899995804,1,.8400001526s-.2999992371.8400001526-1.4699993134.8400001526h-1.2899990082v-1.6800003052h1.7599983215ZM18.3899993896,5.6499996185c.8099994659,0,1,.2800002098,1,.7100000381s-.2000007629.75-1,.75h-1.4399986267v-1.4099998474l1.4399986267-.0500001907ZM14.7499990463,11.8099994659h4.0000009537c2.6100006104,0,3.1499996185-1.2299995422,3.1499996185-2.1900005341.050409317-.9928340912-.7135772705-1.8385486603-1.7064113617-1.8889575005-.0078601837-.0003991127-.0157241821-.0007462502-.0235881805-.001042366h0c.8677787781-.089466095,1.5014133453-.861427784,1.4200000763-1.7299990654,0-1.1399998665-.9099998474-1.8299999237-2.7800006866-1.8299999237h-4.0599994659l-.0000009537,7.6399993896Z"/>
      <rect class="cls-1" x="22.6700000763" y="4.1799998283" width="2.0699996948" height="7.6799998283"/>
      <path class="cls-1" d="M36,8.5900001526c-.0287513733-.1986656189-.1118049622-.3855333328-.2400016785-.5399999619-.1460037231-.1352434158-.3414764404-.2040205002-.5400009155-.1900000572-.5400009155,0-.8800010681.4800000191-.8800010681,1.4000000954,0,1.3099994659.4500007629,1.5500001907.9000015259,1.5500001907.6199989319,0,.7700004578-.3599996567.8199996948-.8000001907h2.0600013733c-.0287284851.6746511459-.4079666138,1.2852258682-1,1.6099996567-.614440918.3261260986-1.3050880432.4815216064-2,.4499998093-1.5124855042.1381702423-2.850605011-.9759321213-2.9887771606-2.4884166718-.0085487366-.0936079025-.0122947693-.1875925064-.0112228394-.281583786.0660667419-1.5670967102,1.390007019-2.7839207649,2.9571037292-2.7178530693.0410194397.0017290115.081993103.0043473244.1228942871.0078530312,1.3245735168-.1454057693,2.5535774231.708067894,2.8800010681,2l-2.0799980164.0000009537Z"/>
      <polygon class="cls-1" points="38.8699989319 11.8599996567 38.8699989319 4.1799998283 40.9300003052 4.1799998283 40.9300003052 8.2899999619 42.2700004578 6.8000001907 44.7400016785 6.8000001907 43.0099983215 8.5699996948 44.9199981689 11.8599996567 42.5999984741 11.8599996567 41.5699996948 9.8800001144 40.9199981689 10.5100002289 40.9199981689 11.8599996567 38.8699989319 11.8599996567"/>
      <path class="cls-1" d="M63.4300003052,11.8599996567c-.0944633484-.1957092285-.1325531006-.4138593674-.1100006104-.6300001144h0c-.3540687561.5564870834-.9815101624.8778581619-1.6399993896.8400001526-1.4634017944-.0210428238-2.6326675415-1.2244243622-2.6116256714-2.687828064.0002975464-.0207290649.0008392334-.0414552689.001625061-.062171936-.0609016418-1.4512314796,1.0661849976-2.6770567894,2.5174179077-2.7379570007.0241851807-.0010151863.0483779907-.0016961098.0725822449-.0020427704.6047172546-.0163536072,1.1873703003.2276320457,1.5999984741.6700000763v-.4499998093h1.8299980164v3.6500005722h0v.1700000763c-.0595855713.442404747.0551681519.8906459808.3199996948,1.25l-1.9799957275-.0100011826ZM62.2700004578,7.9299998283c-.5699996948,0-1,.4500002861-1,1.3799996376s.4000015259,1.3800001144,1,1.3800001144,1-.4499998093,1-1.3800001144-.4099998474-1.3800001144-1-1.3800001144"/>
      <path class="cls-1" d="M78.0500030518,9.3299999237c0-1,.3700027466-1.5599999428,1-1.5599999428s1,.5199999809,1,1.5599999428-.3700027466,1.5599994659-1,1.5599994659-1-.5200004578-1-1.5599994659M82.2800064087,9.3299999237c0-1.5399999619-1.0599975586-2.75-3.1999969482-2.75s-3.1999969482,1.2100000381-3.1999969482,2.75,1.0599975586,2.7399997711,3.1999969482,2.7399997711,3.1999969482-1.2100000381,3.1999969482-2.7399997711"/>
      <path class="cls-1" d="M49.9099998474,5.75h1.2400016785c1.1100006104,0,2.0900001526.4899997711,2.0900001526,2.2700004578,0,1.4099998474-.6199989319,2.2700004578-2.0900001526,2.2700004578h-1.2400016785v-4.5400009155ZM47.7099990845,11.8600006104h3.2900009155c3,0,4.5400009155-1.1800003052,4.5400009155-3.8400001526s-1.5400009155-3.8400006294-4.5400009155-3.8400006294h-3.2999992371l.0099983215,7.680000782Z"/>
      <rect class="cls-1" x="56.2700004578" y="6.9200000763" width="2.0699996948" height="4.9400005341"/>
      <rect class="cls-1" x="56.2700004578" y="4.2100000381" width="2.0699996948" height="1.8499999046"/>
      <path class="cls-1" d="M66.2600021362,11.8599996567v-5.0599994659h2v.7300000191h0c.3152236938-.6039762497.9491119385-.9734225273,1.6299972534-.9499998093.6477966309-.0377540588,1.2549438477.3170704842,1.5400009155.9000000954.3239212036-.5747423172.940612793-.9216313362,1.5999984741-.9000000954,1.0999984741,0,2.0800018311.4299998283,2.0800018311,2.1699995995v3.1000003815h-2.1100006104v-3.0900001526c.0518035889-.3272972107-.1715316772-.6346168518-.4988250732-.6864185333-.0533218384-.008439064-.1075363159-.0096435547-.1611785889-.0035810471-.3349304199-.0363111496-.6358795166.2057676315-.6721954346.5406990051-.0053863525.0496692657-.0046463013.099811554.0021972656.1493005753v3.1000003815h-2.0199966431v-3.1000003815c.0512161255-.3273887634-.172668457-.634308815-.5000534058-.6855249405-.0495986938-.0077590942-.0999755859-.009262085-.1499481201-.0044755936-.3349304199-.0363111496-.6358795166.2057676315-.6721954346.5406990051-.0053863525.0496692657-.0046463013.099811554.0021972656.1493005753v3.0999994278l-2.0699996948.0000009537Z"/>
      <path class="cls-1" d="M83,11.8599996567v-5.0599994659h2v.8600001335h0c.2815093994-.7252807617,1.0171203613-1.1691145897,1.7900009155-1.0799999237.9859619141-.0719823837,1.8436050415.6689476967,1.9155807495,1.6549134254.0040130615.054930687.0054855347.1100187302.0044174194.1650857925v3.4600000381h-2.0599975586v-3c0-.529999733-.2300033569-.7699995041-.6999969482-.7699995041-.4802093506.0162754059-.8563079834.4187574387-.8400344849.8989696503.0000152588.0003433228.0000228882.0006866455.000038147.0010299683v2.8800001144l-2.1100082397-.0100002289Z"/>
      <path class="cls-1" d="M93.5800018311,4.1799998283h2.0699996948v7.6799998283h-1.9300003052v-.6000003815h0c-.4018478394.5526123047-1.0580062866.8618354797-1.7399978638.8199996948-1.4297637939-.0432949066-2.5537185669-1.2374429703-2.5104217529-2.6672048569.0001296997-.0042657852.0002670288-.0085306168.0004196167-.0127944946-.1661071777-1.3762464523.8149032593-2.6265716553,2.19115448-2.7926783562.0792922974-.0095705986.158996582-.0153508186.2388458252-.0173211098.6174697876-.0439167023,1.2255783081.16964674,1.6800003052.5900001526v-3.0000004768ZM92.5800018311,7.9499998093c-.5599975586,0-1,.4499998093-1,1.3900003433s.4000015259,1.3900003433,1,1.3900003433,1-.4499998093,1-1.3900003433-.4100036621-1.3899998665-1-1.3899998665"/>
      <path class="cls-1" d="M91,4.1900000572l.3000030518.9400000572.3000030518-.9400000572h.3300018311v1.3099999428h-.2099990845v-1.0599999428l-.3200073242,1.0599999428h-.1900024414l-.3199996948-1.0599999428v1.0599999428h-.2200012207v-1.3099999428h.3300018311ZM89.4800033569,4.4099998474v-.2199997902h1v.2100000381h-.3800048828v1.0999999046h-.2300033569v-1.0999999046l-.3899917603.009999752Z"/>
    </g>
  </g>
</svg>