<?xml version="1.0" encoding="UTF-8"?>
<svg id="Layer_1" xmlns="http://www.w3.org/2000/svg" version="1.1" viewBox="0 0 20 20">
  <!-- Generator: Adobe Illustrator 29.1.0, SVG Export Plug-In . SVG Version: 2.1.0 Build 142)  -->
  <defs>
    <style>
      .st0 {
        fill: #f28f3b;
      }
    </style>
  </defs>
  <g id="climbing">
    <path id="Vector" class="st0" d="M11.9,4.6c-.5.8-.2,1.8.6,2.3.8.5,1.8.2,2.3-.6.5-.8.2-1.8-.6-2.3-.8-.5-1.8-.2-2.3.6Z"/>
    <path id="Vector_2" class="st0" d="M13.2,8.3l-2.2-1.2c-2-1.2-2.7-3.7-1.5-5.7l-1.4-.8c-1.3,2.3-.9,5.1.8,6.9l-4.3,7.4,1.4.8,1.2-2.2,1.4.8-2.5,4.3,1.4.8,5.2-9.1c.5.7.8,1.4.8,2.2,0,.8-.1,1.6-.5,2.3l1.4.8c1.3-2.3,1.1-5.5-1.4-7.6Z"/>
  </g>
</svg>