<svg width="20" height="20" viewBox="0 0 20 20" fill="none" xmlns="http://www.w3.org/2000/svg">
<g id="MdOutlineHiking">
<path id="Vector" d="M11.25 4.58333C12.1667 4.58333 12.9167 3.83333 12.9167 2.91667C12.9167 2 12.1667 1.25 11.25 1.25C10.3334 1.25 9.58336 2 9.58336 2.91667C9.58336 3.83333 10.3334 4.58333 11.25 4.58333ZM14.5834 8.98333C13.5584 8.675 12.7334 8.00833 12.25 7.16667L11.4167 5.83333C11.075 5.29167 10.4917 5 9.88336 5C9.23336 5 8.55836 5.41667 8.40002 6.2C8.24169 6.98333 5.83336 19.1667 5.83336 19.1667H7.58336L9.08336 12.5L10.8334 14.1667V19.1667H12.5V12.9167L10.75 11.25L11.25 8.75C12.0834 9.70833 13.2584 10.425 14.5834 10.7V19.1667H15.8334V7.5H14.5834V8.98333ZM6.19169 10.9417L4.42502 10.6C4.20851 10.5579 4.01758 10.4315 3.89414 10.2487C3.77071 10.0659 3.72487 9.84157 3.76669 9.625L4.40002 6.35C4.48472 5.91719 4.73751 5.5356 5.10301 5.28881C5.46851 5.04202 5.91692 4.95015 6.35002 5.03333L7.31669 5.225L6.19169 10.9417Z" fill="#C7A27C"/>
</g>
</svg>
