<?xml version="1.0" encoding="UTF-8"?>
<svg id="Layer_2" data-name="Layer 2" xmlns="http://www.w3.org/2000/svg" viewBox="0 0 265.07 73.1">
  <defs>
    <style>
      .cls-1 {
        fill: #fff;
      }
    </style>
  </defs>
  <g id="Layer_1-2" data-name="Layer 1">
    <g>
      <polygon class="cls-1" points="152.94 46.11 145.01 46.11 145.01 40.51 167.02 40.51 167.02 46.11 159.12 46.11 159.12 67.62 152.94 67.62 152.94 46.11"/>
      <polygon class="cls-1" points="172.33 5.93 161.67 33.04 156.99 33.04 146.29 5.93 153.02 5.93 159.35 22.89 165.56 5.93 172.33 5.93"/>
      <path class="cls-1" d="M140.43,22.85l-2.96-7.82-2.99,7.82h5.95ZM142.53,28.45h-10.19l-1.63,4.59h-6.65l11.16-27.11h4.47l11.12,27.11h-6.65l-1.63-4.59Z"/>
      <path class="cls-1" d="M179.5,51.25c1.95,0,3.93-.12,3.93-2.64s-2.02-2.49-3.93-2.49h-2.93v5.13h2.93ZM184.01,67.62l-5.26-10.77h-2.19v10.77h-6.07v-27.11h9.62c6.84,0,9.41,3.19,9.41,8.01,0,3.85-1.67,6.38-4.71,7.58l6.27,11.51h-7.08Z"/>
      <path class="cls-1" d="M207.6,57.43l-2.96-7.82-2.99,7.82h5.95ZM209.7,63.03h-10.19l-1.63,4.59h-6.65l11.16-27.11h4.47l11.12,27.11h-6.65l-1.63-4.59Z"/>
      <g>
        <path class="cls-1" d="M37.02,33.9c-1.76-1.77-3.99-2.33-5.97-2.23-2,.12-3.67.93-5.17,2.29-1.57,1.43-2.75,3.33-3.17,5.4-.45,2.07-.21,4.34.62,6.49.82,2.13,2.28,4.24,3.96,5.93,1.64,1.6,3.84,2.88,6.19,3.75,4.74,1.73,10.14,1.83,14.89.12,2.38-.85,4.61-2.15,6.6-3.82,2.01-1.67,3.64-3.59,4.97-5.88,2.68-4.53,3.95-10,3.83-15.39-.12-5.41-1.78-10.78-4.73-15.4-2.97-4.63-7.21-8.48-12.09-11.43l2.05-3.71c5.55,2.83,10.71,6.84,14.5,12.11,3.82,5.22,6.08,11.62,6.53,18.14.45,6.52-.87,13.19-4.06,19.09-1.55,2.93-3.75,5.73-6.27,7.95-2.52,2.25-5.47,4.11-8.67,5.37-3.21,1.26-6.64,1.93-10.08,1.99-3.44.03-6.87-.54-10.13-1.68-3.25-1.16-6.38-2.85-9.07-5.38-1.34-1.29-2.42-2.56-3.46-4.04-.99-1.48-1.86-3.07-2.51-4.78-1.32-3.4-1.79-7.32-.96-11.1.82-3.79,2.89-7.26,5.8-9.76,1.5-1.27,3.32-2.31,5.31-2.83,1.98-.55,4.11-.57,6.07-.11,1.96.48,3.78,1.44,5.19,2.83,1.39,1.38,2.42,3.2,2.56,5.12l-2.72.99Z"/>
        <path class="cls-1" d="M33.08,39.21c1.76,1.77,3.99,2.33,5.97,2.23,2-.12,3.67-.93,5.17-2.29,1.58-1.43,2.75-3.33,3.17-5.4.45-2.07.21-4.34-.62-6.49-.82-2.13-2.28-4.24-3.96-5.93-1.64-1.6-3.84-2.88-6.19-3.75-4.74-1.73-10.14-1.83-14.89-.12-2.38.85-4.61,2.15-6.6,3.82-2.01,1.67-3.64,3.59-4.97,5.88-2.68,4.53-3.95,10-3.83,15.39.12,5.41,1.78,10.78,4.73,15.4,2.97,4.63,7.21,8.48,12.09,11.43l-2.05,3.71c-5.55-2.83-10.71-6.85-14.5-12.11C2.8,55.78.54,49.38.08,42.86c-.45-6.52.87-13.19,4.06-19.09,1.55-2.93,3.75-5.73,6.27-7.95,2.52-2.25,5.47-4.11,8.67-5.37,3.21-1.26,6.64-1.93,10.08-1.99,3.44-.03,6.87.54,10.13,1.68,3.25,1.16,6.38,2.85,9.07,5.38,1.34,1.29,2.42,2.56,3.46,4.04.99,1.48,1.86,3.07,2.51,4.78,1.32,3.4,1.79,7.32.96,11.1-.82,3.79-2.89,7.26-5.8,9.76-1.5,1.27-3.32,2.31-5.31,2.83-1.98.55-4.11.57-6.07.11-1.96-.48-3.78-1.44-5.19-2.83-1.39-1.38-2.42-3.2-2.56-5.12l2.72-.99Z"/>
      </g>
      <polygon class="cls-1" points="82.39 5.93 88.49 5.93 88.49 27.44 99.62 27.44 99.62 33.04 82.39 33.04 82.39 5.93"/>
      <polygon class="cls-1" points="103.77 5.93 121.97 5.93 121.97 11.54 109.87 11.54 109.87 16.2 121.38 16.2 121.38 21.84 109.87 21.84 109.87 27.44 121.97 27.44 121.97 33.04 103.77 33.04 103.77 5.93"/>
      <polygon class="cls-1" points="174.69 5.93 192.89 5.93 192.89 11.54 180.8 11.54 180.8 16.2 192.31 16.2 192.31 21.84 180.8 21.84 180.8 27.44 192.89 27.44 192.89 33.04 174.69 33.04 174.69 5.93"/>
      <polygon class="cls-1" points="104.94 40.51 104.94 67.62 98.68 67.62 88.49 51.01 88.49 67.62 82.39 67.62 82.39 40.51 88.61 40.51 98.84 57.04 98.84 40.51 104.94 40.51"/>
      <g>
        <path class="cls-1" d="M129.1,54.09c0-5.21-2.76-8.44-7.16-8.44s-7.16,3.15-7.16,8.44,2.8,8.4,7.16,8.4,7.16-3.23,7.16-8.4M108.69,54.09c0-8.56,5.41-14.27,13.26-14.27s13.3,5.68,13.3,14.27-5.44,14.23-13.3,14.23-13.26-5.72-13.26-14.23"/>
        <path class="cls-1" d="M217.37,54.09c0-8.67,6.32-14.35,14.45-14.35,6.07,0,9.63,3.11,11.61,8.24l-5.64,2.22c-1.05-3.07-3.58-4.63-6.88-4.63-4.67,0-7.43,3.03-7.43,8.44s2.84,8.48,7.54,8.48c3.38,0,5.83-1.59,6.77-4.74l5.72,2.18c-1.91,5.4-6.46,8.4-12.48,8.4-8.21,0-13.65-5.64-13.65-14.23"/>
      </g>
      <polygon class="cls-1" points="246.87 40.51 265.07 40.51 265.07 46.11 252.97 46.11 252.97 50.78 264.48 50.78 264.48 56.42 252.97 56.42 252.97 62.02 265.07 62.02 265.07 67.62 246.87 67.62 246.87 40.51"/>
      <g>
        <path class="cls-1" d="M37.02,33.9c-1.76-1.77-3.99-2.33-5.97-2.23-2,.12-3.67.93-5.17,2.29-1.57,1.43-2.75,3.33-3.17,5.4-.45,2.07-.21,4.34.62,6.49.82,2.13,2.28,4.24,3.96,5.93,1.64,1.6,3.84,2.88,6.19,3.75,4.74,1.73,10.14,1.83,14.89.12,2.38-.85,4.61-2.15,6.6-3.82,2.01-1.67,3.64-3.59,4.97-5.88,2.68-4.53,3.95-10,3.83-15.39-.12-5.41-1.78-10.78-4.73-15.4-2.97-4.63-7.21-8.48-12.09-11.43l2.05-3.71c5.55,2.83,10.71,6.84,14.5,12.11,3.82,5.22,6.08,11.62,6.53,18.14.45,6.52-.87,13.19-4.06,19.09-1.55,2.93-3.75,5.73-6.27,7.95-2.52,2.25-5.47,4.11-8.67,5.37-3.21,1.26-6.64,1.93-10.08,1.99-3.44.03-6.87-.54-10.13-1.68-3.25-1.16-6.38-2.85-9.07-5.38-1.34-1.29-2.42-2.56-3.46-4.04-.99-1.48-1.86-3.07-2.51-4.78-1.32-3.4-1.79-7.32-.96-11.1.82-3.79,2.89-7.26,5.8-9.76,1.5-1.27,3.32-2.31,5.31-2.83,1.98-.55,4.11-.57,6.07-.11,1.96.48,3.78,1.44,5.19,2.83,1.39,1.38,2.42,3.2,2.56,5.12l-2.72.99Z"/>
        <path class="cls-1" d="M33.08,39.21c1.76,1.77,3.99,2.33,5.97,2.23,2-.12,3.67-.93,5.17-2.29,1.58-1.43,2.75-3.33,3.17-5.4.45-2.07.21-4.34-.62-6.49-.82-2.13-2.28-4.24-3.96-5.93-1.64-1.6-3.84-2.88-6.19-3.75-4.74-1.73-10.14-1.83-14.89-.12-2.38.85-4.61,2.15-6.6,3.82-2.01,1.67-3.64,3.59-4.97,5.88-2.68,4.53-3.95,10-3.83,15.39.12,5.41,1.78,10.78,4.73,15.4,2.97,4.63,7.21,8.48,12.09,11.43l-2.05,3.71c-5.55-2.83-10.71-6.85-14.5-12.11C2.8,55.78.54,49.38.08,42.86c-.45-6.52.87-13.19,4.06-19.09,1.55-2.93,3.75-5.73,6.27-7.95,2.52-2.25,5.47-4.11,8.67-5.37,3.21-1.26,6.64-1.93,10.08-1.99,3.44-.03,6.87.54,10.13,1.68,3.25,1.16,6.38,2.85,9.07,5.38,1.34,1.29,2.42,2.56,3.46,4.04.99,1.48,1.86,3.07,2.51,4.78,1.32,3.4,1.79,7.32.96,11.1-.82,3.79-2.89,7.26-5.8,9.76-1.5,1.27-3.32,2.31-5.31,2.83-1.98.55-4.11.57-6.07.11-1.96-.48-3.78-1.44-5.19-2.83-1.39-1.38-2.42-3.2-2.56-5.12l2.72-.99Z"/>
      </g>
    </g>
  </g>
</svg>