<?xml version="1.0" encoding="UTF-8"?>
<svg id="Layer_2" data-name="Layer 2" xmlns="http://www.w3.org/2000/svg" viewBox="0 0 16.8 24">
  <defs>
    <style>
      .cls-1 {
        fill: #fff;
      }
    </style>
  </defs>
  <g id="Layer_1-2" data-name="Layer 1">
    <g id="MdLocationPin">
      <path id="Vector" class="cls-1" d="M8.4,0C3.76,0,0,3.76,0,8.4c0,2.09.6,4.04,1.69,5.81,1.14,1.85,2.64,3.43,3.79,5.28.56.9.97,1.74,1.4,2.71.31.66.56,1.8,1.51,1.8s1.2-1.14,1.5-1.8c.44-.97.84-1.81,1.4-2.71,1.15-1.84,2.65-3.42,3.79-5.28,1.1-1.76,1.7-3.72,1.7-5.81C16.8,3.76,13.04,0,8.4,0ZM8.4,11.7c-.8,0-1.56-.32-2.12-.88-.56-.56-.88-1.33-.88-2.12s.32-1.56.88-2.12c.56-.56,1.33-.88,2.12-.88s1.56.32,2.12.88.88,1.33.88,2.12-.32,1.56-.88,2.12c-.56.56-1.33.88-2.12.88Z"/>
    </g>
  </g>
</svg>