<?xml version="1.0" encoding="utf-8"?>
<!-- Svg Vector Icons : http://www.onlinewebfonts.com/icon -->
<!DOCTYPE svg PUBLIC "-//W3C//DTD SVG 1.1//EN" "http://www.w3.org/Graphics/SVG/1.1/DTD/svg11.dtd">
<svg version="1.1" xmlns="http://www.w3.org/2000/svg" xmlns:xlink="http://www.w3.org/1999/xlink" x="0px" y="0px" viewBox="0 0 256 256" enable-background="new 0 0 256 256" xml:space="preserve">
<metadata> Svg Vector Icons : http://www.onlinewebfonts.com/icon </metadata>
<g><g><g><path fill="#f70101"  d="M87.6,43.3c-4.5,1.2-8.6,4.6-10.5,8.7c-0.8,1.7-1,3-1,6.3c0,3.9,0.1,4.3,1.6,7.1c4.8,8.8,16.4,10.8,23.8,4.1c4.6-4.2,6.2-11.5,3.6-17.5c-1.1-2.6-5-6.5-7.8-7.7C94.9,43.1,90.1,42.7,87.6,43.3z"/><path fill="#f70101"  d="M171,43.5c-4.4,1.4-8.2,5.1-9.9,9.4c-0.8,2-0.9,3.3-0.8,6.1c0.3,5.9,3.2,10.3,8.5,12.9c7.4,3.6,16.2,0.7,20.2-6.6c1.1-2,1.4-3.1,1.5-6.4c0.2-3.6,0.1-4.3-1.1-6.8c-1.5-3.3-4.7-6.5-8-8C178.8,43,173.7,42.7,171,43.5z"/><path fill="#f70101"  d="M85.5,80c-4.3,1.5-5.3,2.4-16.7,16.7c-8.9,11.1-9.6,12.4-8.7,15c0.3,0.7,0.5,1.5,0.5,1.8s-4.3,0.4-10.5,0.4c-5.8,0-11.4,0.2-12.5,0.5c-7.1,1.6-13.6,7.7-15.8,14.8c-3.6,11.6,3.3,24.3,14.9,27.3c3.4,0.9,4.8,0.5,13.3-3.2c7.1-3.1,13-5.1,16.6-5.5l2.2-0.3l16.2-18.9l16.1-18.9v-3.2c0-2.3,0.1-3.2,0.6-3.2c0.9,0,10.1,2.8,10.6,3.2c0.3,0.3-50.1,59.5-50.7,59.5c-0.1,0-1.8-0.4-3.8-0.9c-5.9-1.5-7.6-1.6-8.7-0.6c-0.9,0.8-22.2,24.7-24.7,27.7c-2.7,3.3-0.8,8.3,5.1,14c5.4,5.2,11.2,7.7,14.4,6.5c1.5-0.6,27.1-29.3,27.1-30.4c0-0.4-0.8-3.2-1.9-6.3c-1.8-5.4-1.8-5.5-1-6.5c0.9-1,14.9-17.5,15.1-17.7c0-0.1,2.3,0.8,4.9,1.9c7.5,3.3,9.1,3.6,12.2,2.8c1.4-0.4,5.8-2,9.5-3.6c10-4.2,12.6-4.9,17.8-4.9c4.9,0,8.6,1,16.2,4.2l4.1,1.8l10.7-12.5c5.9-6.9,14.3-16.7,18.7-21.8l7.9-9.3v-3.5c0-2.5,0.2-3.5,0.6-3.5c0.7,0,10.9,3.1,11.2,3.4c0.1,0.1-11.2,13.5-25,29.7c-13.9,16.2-25.3,29.5-25.4,29.6c-0.1,0.1-1.9-0.3-4-0.8c-6.4-1.6-8-1.7-9-0.7c-0.9,0.9-21.8,24.4-24.4,27.5c-3,3.4-1.5,7.9,4.6,13.9c5.7,5.6,12.3,8.5,15.2,6.5c0.6-0.4,6.9-7.2,13.9-15.1l12.8-14.4l-0.6-2.6c-0.3-1.5-1.2-4.2-2-6.2l-1.4-3.5l7.1-8.2l7.1-8.2l5.6-2.4c7.2-3.1,10.7-4,15.3-4c4.7,0,7.8,0.9,17.6,5.1c4.3,1.8,8.8,3.5,9.8,3.8c2.7,0.6,4.6,0,13.7-3.9c7-3,7.5-3.3,8.8-5.3c7.6-11.2,2.4-27.2-10.5-32.4c-2.4-1-3.5-1.1-14-1.3l-11.4-0.2l2.2-2.7c1.2-1.4,2.4-2.6,2.8-2.6c2.6,0,5.4-4.2,4.9-7.1c-0.6-3.3-2.4-4.3-11-6.9l-7.8-2.3l-6-5c-7.3-6.1-10.7-7.9-14.2-7.5c-2.6,0.3-5.5,1.7-7.5,3.5c-1.8,1.7-18.6,22.4-19.7,24.3c-0.9,1.6-1,3.7-0.1,5.8c0.3,0.8-0.6,0.8-14.1,0.8c-11.3,0-14.3-0.1-14-0.6c1.2-1.9,4.2-4.9,5-4.9c3.1,0,5.8-4.2,4.9-7.7c-0.8-3-2-3.7-10.9-6.4l-8.2-2.5l-5.3-4.5c-2.9-2.5-6.1-5.1-7.2-5.8C91.9,79.3,88.7,78.8,85.5,80z"/><path fill="#f70101"  d="M10,164.1c0,4.5,0.1,6.1,0.6,6.2c0.3,0.1,1.6,0.4,2.9,0.7c1.3,0.3,5,1.7,8.3,3.1l6,2.5l3.4-3.6c1.8-2,3.7-4.2,4.2-4.8l0.9-1.2l-7.9-3.4c-8.3-3.5-11.8-4.7-15.9-5.3L10,158L10,164.1L10,164.1z"/><path fill="#f70101"  d="M122.7,158.9c-3,0.6-7.3,2.3-17.1,6.4c-3.5,1.5-4.7,1.8-7.4,1.8c-2.9,0-3.8-0.3-8.5-2.3c-2.9-1.3-5.4-2.3-5.6-2.3c-0.5,0-7.8,8.7-7.8,9.3c0,0.8,14.1,6.6,18,7.5c4.5,0.9,8.4,0.3,14.9-2.3l4.9-1.9l6.8-7.7c9-10.1,8.4-9.3,6.5-9.2C126.6,158.2,124.5,158.5,122.7,158.9z"/><path fill="#f70101"  d="M182.2,158.8c-3.4,0.8-5.8,1.6-11,3.9c-3.7,1.6-4.3,2-7.1,5.3l-3,3.5l1.2,3.6c1,3.2,1.2,3.6,2.2,3.5c0.6-0.1,4.6-1.7,9-3.5c4.3-1.8,8.7-3.6,9.7-3.9c4.4-1.2,8.3-0.4,17.6,3.8c6.3,2.8,10.9,4.4,14.3,4.7c3.7,0.4,8.3-0.8,17.6-4.8c4.2-1.8,8.7-3.5,9.9-3.8c1.3-0.3,2.6-0.6,2.9-0.7c0.4-0.1,0.6-1.8,0.6-6.2c0-6.9,0.5-6.4-4.9-5.3c-3.8,0.7-7.1,2-15.6,5.7c-8.8,3.9-9.3,3.8-21.3-1.5C194,158.7,187.9,157.4,182.2,158.8z"/></g></g></g>
</svg>