<?xml version="1.0" encoding="UTF-8"?>
<svg id="Layer_2" data-name="Layer 2" xmlns="http://www.w3.org/2000/svg" viewBox="0 0 86.971204952 15.4611520834">
  <defs>
    <style>
      .cls-1 {
        fill: #fff;
      }
    </style>
  </defs>
  <g id="Layer_2-2" data-name="Layer 2">
    <g id="Layer_3" data-name="Layer 3">
      <path class="cls-1" d="M33.6916615613,10.7532921856c-.4724649767.3452619611-1.0176171927.5633250657-1.6172844918.6360109188-.8358997874.1090315523-1.6899717312.1453717061-2.5258718652.127204402-.9085870268,0-1.7990022438-.0545130034-2.7075892706-.1635445557-.690526175-.0908587027-1.344708817-.3452619611-1.9443762027-.6905239221l-.0726874127-2.1624443331c.4179500237.3270918842.9085870268.5633222929,1.3992239866.763212548.47246515.1635445557.9812740929.2907489577,1.4900826893.3452619611s1.1448198617.072685853,1.8898609464.072685853c.5088085964,0,1.0539608125,0,1.562770102-.0908587027.1998888686-.0181728497.3452633475-.2362304087.327091191-.4361206638-.0181714633-.1635445557-.1453737857-.2907489577-.327091191-.3270918842-.2362324883-.0545157762-.5088085964-.072685853-.7632132412-.1090315523l-2.1987806742-.199890255c-.6541827286-.0545157762-1.2901936474-.1453744788-1.9262045662-.2907489577-.3997782571-.1090315523-.7632130679-.3089190346-1.0357891759-.6178380691-.272576108-.3452619611-.3997783005-.7995554745-.3816065339-1.235678911-.0363434816-.5269793664.1635456605-1.0539615057.5633239393-1.4173963164.4361217902-.3452619611.9631022831-.5633250657,1.5264261357-.6541837684.8358999607-.1090315523,1.6899719045-.1635445557,2.5258716919-.1635445557.7813847044,0,1.5445979456.0363429265,2.32598265.1453744788.6178394555.072685853,1.2175067546.2544032584,1.7990018972.5088092896l.0726872394,1.998891459c-.4179498937-.2180603319-.8358997874-.3997777372-1.2901933008-.5269793664-.4179498937-.1090315523-.8540719438-.199890255-1.2901933008-.2362331815-.4542935134-.0363429265-.9994457295-.0545157762-1.671800268-.0545157762-.5088085964-.0181728496-1.0539608125,0-1.5627697554.1090315523-.1635455955.0181728497-.272576108.1635445557-.272576108.3089190346,0,.1635445557.1090305125.3089190346.272576108.3270918842h0c.2544042982.0545157762.4906371331.072685853.7450414313.1090315523l2.1987810208.1817174054c.6723545385.0363429265,1.344709077.1453744788,1.9807199957.2907489577.4179498937.0908587027.8177283241.3089190346,1.1084758954.6360109188.2907475713.3816076604.4179498937.8177283241.381606274,1.2901919144.0363436197.5814979154-.1817174054,1.1266501315-.5996672991,1.5082522463h0l.0181714633.0181783952ZM43.9405228078,10.7714594897c-.5633236793.2907489577-1.1448202083.5088065168-1.7626582774.5996652195-.7268696214.1090315523-1.4719107062.1635445557-2.1987803276.1635445557-.9812742662.0181728497-1.9625485325-.0908587027-2.9074784858-.3270891114-.6905260017-.1635445557-1.3083654572-.5633250657-1.7444868142-1.1266501315-.4179498937-.6541837684-.6360109188-1.4355663932-.5996672991-2.198781714-.054515083-.7995554745.1635459421-1.5809408721.5996672991-2.2532947174.4179498937-.5633250657,1.0357893492-.9449299533,1.7081438877-1.1266473587.9267584901-.2362331815,1.889861293-.3452619611,2.8347912464-.3452619611.763212548,0,1.5264264823.0363429265,2.2896390303.1453744788.5996679923.0908587027,1.1811631349.2907489577,1.7081438877.5996679923l.0726872394,2.1624360147c-.4724649767-.3270918842-.9994457295-.5633250657-1.5445979456-.6905266949-.6360109188-.1272016292-1.2901933008-.1817174054-1.9443756828-.1635445557-.5633236793,0-1.1266473587.0181728497-1.6717995748.0908587027-.3452633475.0363429265-.654182382.199890255-.9085870268.4542935134-.2362331815.3270918842-.3634348107.7268696214-.3270918842,1.1266473587-.0363429265.3997777372.0908587027.7995554745.3270918842,1.1266473587.2362331815.2544032584.5633236793.3816076604.9085870268.4179478141.5633236793.072685853,1.1084758954.1090315523,1.6717995748.0908587027.4724649767,0,.9449299533,0,1.3992234667-.072685853.3634348107-.0363456993.7086981582-.127204402,1.0539615057-.2544032584.381606274-.1453717061.7450410847-.3270918842,1.0903044322-.5451522161l-.0908587027,2.126095861h.0363415401ZM52.335866381,4.338664449l3.3254290727,7.0506331098h-2.9256513354l-.7268696214-1.6536294979h-4.2521875627l-.7086981582,1.6536294979h-2.925649949l3.3072576094-7.0506358826h4.9063699448v.0000027728ZM51.2092190223,7.8821538535l-1.3265376137-2.9983371885-1.3083647641,2.9983371885h2.6530752274-.0181728496ZM64.4927624633,8.3727930663c-.5633250657.3997777372-1.2175060614.6178380691-1.8898599066.6360109188l2.5077007485,2.3441534201h-3.1255388177l-3.2527404469-3.3435991495v3.3435991495h-2.5985594512v-6.9416043303c.4542935134-.0908587027.9085870268-.1635445557,1.3447076906-.1817174054.5088092896-.0363429265,1.3810533899-.0545157762,2.5803866016-.0545157762.8540712506,0,1.6899724244.0181728497,2.5258708254.1090315523.5451522161.0363429265,1.0539615057.199890255,1.5264250959.4724663631.6723538453.4179505869,1.0539615057,1.1811631349.9812728798,1.9625485325.072685853.5996679923-.1635445557,1.2175060614-.5996679923,1.6354566483h0l.0000027728.0181700769ZM62.0940932671,6.0649797999c-.2180603319-.1090315523-.4724663631-.1817174054-.7086967718-.1635445557h-2.6349023777v1.5627707952h2.6349023777c.2544032584.0181728497.5088092896-.0363429265.7086967718-.1635445557.1635445557-.1635445557.2544032584-.3816076604.2180603319-.5996679922.0181728497-.2362331815-.0545157762-.4724663631-.2180603319-.6360109188h0v-.0000027728ZM74.3418452794,8.2455886643c-.3816076604.3997777372-.8904141772.6541837684-1.4537392429.7450424711-.7813826248.1635445557-1.5991137217.2180631047-2.3986691962.199890255h-1.998891459v2.1624360147h-2.6167295281v-6.9234342534c.4542935134-.0908587027.9085870268-.1635445557,1.3447076906-.1817174054.5269793664-.0363429265,1.3810533899-.0545157762,2.5803866016-.0545157762.8540712506,0,1.6899696516.0181728497,2.5258708254.1090315523.5451522161.0545157762,1.0539587329.199890255,1.5445979456.4724663631.3089218073.1817174054.5633250657.4361206638.7268696214.763212548.1635445557.3816076604.2544032584.7813853976.2544032584,1.1993359845.0363456993.5451522161-.1453717061,1.0903044322-.5088065168,1.5082550191h0v-.0000027728ZM71.8523146077,6.0649797999c-.2180631047-.1090315523-.4542935134-.1635445557-.6905266949-.1635445557h-2.6349023777v1.5627707952h2.6349023777c.2362331815.0181728497.4906364399-.0181728496.7086995446-.1635445557.1635445557-.1635445557.2362304087-.3816076604.199890255-.6178380691,0-.2362331815-.072685853-.4724663631-.2180631047-.6360109188h0v.0181673041ZM81.9012904515,4.338664449l3.3254262999,7.0506331098h-2.9256513354l-.7268696214-1.6536294979h-4.2158460226l-.7086967718,1.6536294979h-2.9438241851l3.3072589958-7.0506358826h4.8881970951l.0000055456.0000027728ZM80.7928131697,7.8821538535l-1.3083675368-2.9983371885-1.3083675368,2.9983371885h2.6349023777-.0181673041ZM86.971204952,5.3381101785c0,.8722441003-.3816076604,1.1811631349-1.4355663932,1.1811631349s-1.4537392429-.3270918842-1.4537392429-1.1811631349.39978051-1.1629902852,1.4537392429-1.1629902852,1.4355663932.3089190346,1.4355663932,1.1629902852ZM86.625942991,5.3381101785c0-.6541837684-.272576108-.8722441003-1.0903044322-.8722441003s-1.1084772818.2180603319-1.1084772818.8722441003.272576108.8722441003,1.1084772818.8722441003,1.0903044322-.199890255,1.0903044322-.8722441003ZM85.8445548206,5.501657507l.4179478141.3816076604h-.4179478141l-.5996652195-.5633250657v.5633250657h-.3452619611v-1.1084772818c.1817174054-.0181728496.3634348107-.0363429265.5451522161-.0181728496.199890255,0,.3816076604,0,.5814979154.0545157762.1635445557.0363429265.2544032584.1817174054.2362304087.3452619611,0,.2544032584-.1090315523.3634348107-.39978051.3816076604h0l-.0181728497-.0363429265ZM85.2267167514,5.2654243254h.5088065168c.1090315523,0,.1453717061-.0181728496.1453717061-.1090315523s-.0363456993-.1090315523-.1635445557-.1272016292-.199890255,0-.2907489577,0h-.199890255v.2544032584h0l.0000055456-.0181700769ZM10.5940520192,0C3.1149432613,0,0,2.1415235888,0,7.7711352012c0,5.6296120765,3.1149432613,7.6900168822,10.58594093,7.6900168822,7.4709989064,0,10.5616048773-2.1415231247,10.5616048773-7.6900168822S18.0974965203,0,10.5940520192,0ZM2.5471150288,7.7467994579c0-4.007245079,2.084740549-5.4187039522,8.0469369904-5.4187039522s6.1487688225.5921636663,7.2357525633,2.1415237436h-5.9540841144c-.4867099136,0-.9490840839.1865720717-1.2735573597.5434927987l-.7057291271.7057294366-3.8206726979,3.8206726979c-.1622366379.1622366379-.4055915947.2676907-.6489465514.2676907h-2.5957862058c-.1865723811-.6732822947-.2676907-1.3546762975-.2676907-2.0604054246h-.0162227973ZM10.5940520192,13.1655034101c-3.8774558925,0-6.1244330793-.600275065-7.2357538011-2.1415231247h5.9297483712c.4867099136,0,.9734198272-.2190192136,1.2978931029-.5678282325l.6813933839-.7057291271,3.8206733168-3.8206726979c.1622366379-.1622366379.4055915947-.2676907.6489465515-.2676907h2.6282330383c.1622366379.6732822947.2676894623,1.3790114218.2433549568,2.0847411679,0,3.9261273789-2.084740549,5.4187039522-8.0469369904,5.4187039522h.0243357432l.008112327-.0000012378Z"/>
    </g>
  </g>
</svg>