<svg width="20" height="20" viewBox="0 0 20 20" fill="none" xmlns="http://www.w3.org/2000/svg">
<g id="MdDownhillSkiing">
<path id="Vector" d="M15.4167 3.74992C15.4167 4.66658 14.6667 5.41658 13.75 5.41658C12.8334 5.41658 12.0834 4.66658 12.0834 3.74992C12.0834 2.83325 12.8334 2.08325 13.75 2.08325C14.6667 2.08325 15.4167 2.83325 15.4167 3.74992ZM13.15 17.4166L13.7834 17.6416C14.9635 18.0532 16.2557 18.0026 17.4 17.4999L18.3334 18.4416C17.4584 18.8999 16.4667 19.1666 15.4167 19.1666C14.7 19.1666 14.0167 19.0499 13.375 18.8249L1.66669 14.5583L2.08335 13.3833L7.83335 15.4749L9.26669 11.7749L6.29169 8.66658C5.55002 7.88325 5.73335 6.60825 6.66669 6.06659L9.56669 4.39159C10.4834 3.85825 11.6667 4.30825 11.9917 5.31659L12.2667 6.21659C12.4457 6.79807 12.7495 7.33347 13.1568 7.78542C13.5641 8.23737 14.0652 8.59497 14.625 8.83325L15.0584 7.49992L16.25 7.88325L15.3167 10.7583C14.3229 10.5943 13.3883 10.1768 12.6029 9.54621C11.8176 8.9156 11.2081 8.09314 10.8334 7.15825L8.72502 8.36658L11.25 11.2499L9.40002 16.0499L11.975 16.9832L13.725 11.6166C14.1084 11.7666 14.5084 11.8749 14.925 11.9583L13.15 17.4166Z" fill="#B47AEA"/>
</g>
</svg>
