<svg width="20" height="20" viewBox="0 0 20 20" fill="none" xmlns="http://www.w3.org/2000/svg">
<g id="MdOutlineSnowboarding">
<path id="Vector" d="M11.6666 2.49992C11.6666 1.58325 12.4166 0.833252 13.3333 0.833252C14.25 0.833252 15 1.58325 15 2.49992C15 3.41658 14.25 4.16658 13.3333 4.16658C12.4166 4.16658 11.6666 3.41658 11.6666 2.49992ZM17.8333 16.7416C17.7395 16.7227 17.6426 16.7256 17.5501 16.7502C17.4576 16.7748 17.372 16.8203 17.3 16.8833C16.725 17.3833 15.9333 17.6166 15.1333 17.4416L14.1666 17.2416L13.3333 12.0833L10.5666 9.85825L12.0666 7.44992C12.5541 8.23032 13.232 8.87386 14.0368 9.31997C14.8415 9.76607 15.7465 10.0001 16.6666 9.99992V8.33325C15.125 8.33325 13.8 7.39992 13.225 6.06659L12.7916 5.05825C12.6333 4.69992 12.175 4.16658 11.4166 4.16658H6.66664L4.58331 7.49992L5.99998 8.38325L7.58331 5.83325H9.54164L7.44998 9.15825C7.21664 9.53325 7.14164 9.99158 7.24164 10.4249L7.91664 13.3333L4.99998 15.2916L4.60831 15.2083C3.80831 15.0416 3.18331 14.4999 2.85831 13.8166C2.81921 13.7295 2.76051 13.6525 2.68679 13.5918C2.61307 13.5311 2.52632 13.4882 2.43331 13.4666C2.07498 13.3916 1.74998 13.6333 1.68331 13.9499C1.64998 14.0666 1.66664 14.2083 1.72498 14.3333C2.20831 15.3666 3.14998 16.1666 4.34998 16.4249L14.875 18.6666C16.075 18.9249 17.2583 18.5749 18.125 17.8249C18.2333 17.7332 18.3 17.6082 18.325 17.4832C18.3833 17.1666 18.1916 16.8166 17.8333 16.7416ZM7.27498 15.7749L9.79164 14.0833L9.42498 11.3166L11.7916 12.9999L12.4166 16.8666L7.27498 15.7749Z" fill="#EBBAB9"/>
</g>
</svg>
