<?xml version="1.0" encoding="UTF-8"?>
<svg id="Layer_2" data-name="Layer 2" xmlns="http://www.w3.org/2000/svg" viewBox="0 0 24 24">
  <defs>
    <style>
      .cls-1 {
        fill: #fff;
      }
    </style>
  </defs>
  <g id="Layer_1-2" data-name="Layer 1">
    <path class="cls-1" d="M10.8,24v-4.98l-3.9,3.84-1.68-1.68,5.58-5.58v-2.4h-2.4l-5.58,5.58-1.68-1.68,3.84-3.9H0v-2.4h4.98l-3.84-3.9,1.68-1.68,5.58,5.58h2.4v-2.4L5.22,2.82l1.68-1.68,3.9,3.84V0h2.4v4.98l3.9-3.84,1.68,1.68-5.58,5.58v2.4h2.4l5.58-5.58,1.68,1.68-3.84,3.9h4.98v2.4h-4.98l3.84,3.9-1.68,1.68-5.58-5.58h-2.4v2.4l5.58,5.58-1.68,1.68-3.9-3.84v4.98h-2.4Z"/>
  </g>
</svg>